<svg width="28" height="28" viewBox="0 0 28 28" xmlns="http://www.w3.org/2000/svg"><defs><style>.cls-1{fill:#4f78a3}.cls-2{fill:#fffffe;fill-rule:evenodd}</style></defs><rect class="cls-1" width="27.8" height="27.8" rx="7.94"/><path class="cls-2" d="M24 9.54c.15-.46 0-.79-.69-.79H21a1 1 0 0 0-1 .61 17.69 17.69 0 0 1-2.82 4.38c-.53.5-.77.66-1.06.66s-.36-.16-.36-.61V9.54c0-.55-.17-.79-.65-.79h-3.6a.54.54 0 0 0-.58.49c0 .52.82.64.91 2.09v3.16c0 .7-.14.82-.43.82-.77 0-2.66-2.67-3.78-5.73-.22-.59-.44-.83-1-.83H4.37c-.66 0-.79.29-.79.61 0 .56.78 3.38 3.61 7.11a9.06 9.06 0 0 0 7 3.93c1.45 0 1.63-.31 1.63-.84v-1.92c0-.61.14-.74.6-.74s.92.16 2.28 1.39c1.55 1.45 1.81 2.11 2.68 2.11h2.29c.65 0 1-.31.79-.91A9.32 9.32 0 0 0 22.52 17c-.53-.59-1.33-1.23-1.58-1.54s-.24-.6 0-1c0 .01 2.79-3.67 3.06-4.92z"/></svg>