<svg width="93" height="28" viewBox="0 0 93 28" fill="none" xmlns="http://www.w3.org/2000/svg"><path d="M0 11.642l5.48.22L10.167.09 0 11.642z" fill="url(#a)"/><path d="M0 11.642l5.48.22L10.167.09 0 11.642z" fill="url(#b)"/><path fill-rule="evenodd" clip-rule="evenodd" d="M0 11.641L4.508 25.84l.973-14.021L0 11.64z" fill="url(#c)"/><path fill-rule="evenodd" clip-rule="evenodd" d="M18.71 23.392L4.51 25.84 19.139 28l-.429-4.608z" fill="url(#d)"/><path fill-rule="evenodd" clip-rule="evenodd" d="M4.493 25.84l.939-14.028 13.37 11.568-14.309 2.46z" fill="url(#e)"/><path d="M10.166.09l-4.74 11.73 16.718-5.205L10.166.089z" fill="url(#f)"/><path d="M10.166.09l-4.74 11.73 16.718-5.205L10.166.089z" fill="url(#g)"/><path d="M5.43 11.818L18.69 23.4l3.5-16.806-16.76 5.224z" fill="url(#h)"/><path d="M5.43 11.818L18.69 23.4l3.5-16.806-16.76 5.224z" fill="url(#i)" fill-opacity=".5"/><path fill-rule="evenodd" clip-rule="evenodd" d="M18.689 23.396L19.094 28l10.3-10.98-10.705 6.376z" fill="url(#j)"/><path d="M18.686 23.4l10.707-6.38-7.249-10.493-3.458 16.872z" fill="url(#k)"/><path d="M18.686 23.4l10.707-6.38-7.249-10.493-3.458 16.872z" fill="url(#l)" fill-opacity=".5"/><path d="M10.167.091l13.79 3.922-1.83 2.603L10.167.09z" fill="url(#m)"/><path d="M23.955 4.012l-1.83 2.604L29.39 17.02 23.956 4.012z" fill="url(#n)"/><path opacity=".5" d="M5.43 11.838l.033-.08 16.581-5.19.08.046L5.43 11.838z" fill="url(#o)"/><path opacity=".3" d="M18.687 23.396l-.072-.063L22.09 6.498l.075.04-3.477 16.858z" fill="url(#p)"/><path opacity=".2" d="M18.64 23.32l-.038-.062 10.728-6.346.043.059-10.733 6.35z" fill="url(#q)"/><path opacity=".34" d="M5.518 11.787l-.09.03L10.167 0l.07.028-4.718 11.76z" fill="url(#r)"/><path fill-rule="evenodd" clip-rule="evenodd" d="M43.084 19.83c-.79.928-2.147 1.523-3.577 1.523-3.424 0-6.204-2.866-6.204-6.395 0-3.528 2.78-6.394 6.204-6.394 1.43 0 2.788.595 3.577 1.523V8.99h2.807v11.936h-2.807V19.83zM43 14.256c-.236-1.942-1.69-3.02-3.47-2.961-1.98.065-3.505 1.591-3.505 3.664 0 2.072 1.524 3.598 3.506 3.663 1.78.058 3.233-1.019 3.47-2.96v-1.406zm13.27 4.151c-1.072.51-2.664.49-3-.654-.087-.29-.123-.638-.13-1.087v-5.064h3.003V8.988H53.14v-4.13l-2.846-.29v4.42H47.89v2.614h2.405v5.076c.011.806.093 1.827.625 2.755.504.878 1.557 1.92 3.721 1.92h.056a4.306 4.306 0 0 0 2.584-.875l-1.012-2.07zm35.167-5.214l.001-.005-.008-.08a4.916 4.916 0 0 0-.098-.657c-.22-1.049-.74-2.118-1.624-2.81-1.137-.888-2.426-1.133-3.515-1.066l-.037.002-.02.002a6.457 6.457 0 0 0-3.954 1.865c-.216-.3-.47-.572-.764-.802-1.176-.92-2.516-1.15-3.628-1.059a6.047 6.047 0 0 0-.127.01c-.343.035-1.807.243-2.765 1.32v-.92h-2.832v11.96h2.832v-6.221a3.334 3.334 0 0 1 3.33-3.332c1.165 0 2.114.95 2.114 2.116v7.434h2.831v-6.22a3.334 3.334 0 0 1 3.33-3.33c1.165 0 2.114.948 2.114 2.115v7.435h2.831v-7.435a4.93 4.93 0 0 0-.011-.323zM64.074 8.564a6.397 6.397 0 0 1 6.394 6.395 6.397 6.397 0 0 1-6.394 6.393 6.397 6.397 0 0 1-6.394-6.393 6.397 6.397 0 0 1 6.394-6.395zm0 2.729a3.668 3.668 0 0 1 3.666 3.666 3.668 3.668 0 0 1-3.666 3.665 3.668 3.668 0 0 1-3.666-3.665 3.668 3.668 0 0 1 3.666-3.666z" fill="#000"/><defs><linearGradient id="a" x1="3.234" y1="13.171" x2="10.429" y2="-1.63" gradientUnits="userSpaceOnUse"><stop stop-color="#9A38FB"/><stop offset="1" stop-color="#D13075"/></linearGradient><linearGradient id="b" x1="14.837" y1="12.127" x2="2.239" y2="5.189" gradientUnits="userSpaceOnUse"><stop stop-color="#79C5FF"/><stop offset="1" stop-color="#fff" stop-opacity="0"/></linearGradient><linearGradient id="c" x1="2.955" y1="25.839" x2="1.525" y2="10.249" gradientUnits="userSpaceOnUse"><stop stop-color="#0892FF"/><stop offset="1" stop-color="#A51FFF"/></linearGradient><linearGradient id="d" x1="8.181" y1="25.696" x2="19.07" y2="24.782" gradientUnits="userSpaceOnUse"><stop stop-color="#005EB1"/><stop offset="1" stop-color="#8900E4"/></linearGradient><linearGradient id="e" x1="4.493" y1="25.566" x2="13.578" y2="15.648" gradientUnits="userSpaceOnUse"><stop stop-color="#27A0FF"/><stop offset="1" stop-color="#BD47FF"/></linearGradient><linearGradient id="f" x1="3.876" y1="9.607" x2="13.664" y2=".39" gradientUnits="userSpaceOnUse"><stop stop-color="#902EFF"/><stop offset="1" stop-color="#FF5858"/></linearGradient><linearGradient id="g" x1="8.137" y1="28.241" x2="9.817" y2="4.048" gradientUnits="userSpaceOnUse"><stop stop-color="#fff"/><stop offset="1" stop-color="#fff" stop-opacity="0"/></linearGradient><linearGradient id="h" x1="8.617" y1="22.459" x2="24.711" y2="6.638" gradientUnits="userSpaceOnUse"><stop stop-color="#A966FF"/><stop offset="1" stop-color="#F14E59"/></linearGradient><linearGradient id="i" x1="-29.173" y1="50.174" x2="17.939" y2="10.955" gradientUnits="userSpaceOnUse"><stop stop-color="#fff"/><stop offset="1" stop-color="#fff" stop-opacity="0"/></linearGradient><linearGradient id="j" x1="17.314" y1="28" x2="36.995" y2="10.664" gradientUnits="userSpaceOnUse"><stop stop-color="#9D6DD7"/><stop offset="1" stop-color="#EC2F48"/></linearGradient><linearGradient id="k" x1="20.779" y1="26.188" x2="30.434" y2="12.193" gradientUnits="userSpaceOnUse"><stop stop-color="#A554FF"/><stop offset="1" stop-color="#FF788E"/></linearGradient><linearGradient id="l" x1="8.466" y1="22.742" x2="26.064" y2="18.888" gradientUnits="userSpaceOnUse"><stop stop-color="#fff"/><stop offset="1" stop-color="#fff" stop-opacity="0"/></linearGradient><linearGradient id="m" x1="22.84" y1="1.845" x2="22.359" y2="4.8" gradientUnits="userSpaceOnUse"><stop stop-color="#FF224E"/><stop offset="1" stop-color="#FFA2A3"/></linearGradient><linearGradient id="n" x1="25.758" y1="5.162" x2="22.34" y2="16.319" gradientUnits="userSpaceOnUse"><stop stop-color="#FA4F57"/><stop offset="1" stop-color="#E0ADE8"/></linearGradient><linearGradient id="o" x1="37.702" y1="8.397" x2="5.226" y2="19.337" gradientUnits="userSpaceOnUse"><stop stop-color="#fff"/><stop offset="1" stop-color="#fff" stop-opacity="0"/></linearGradient><linearGradient id="p" x1="20.521" y1=".392" x2="15.95" y2="22.494" gradientUnits="userSpaceOnUse"><stop stop-color="#fff" stop-opacity="0"/><stop offset="1" stop-color="#fff"/></linearGradient><linearGradient id="q" x1="18" y1="21.537" x2="25.93" y2="15.889" gradientUnits="userSpaceOnUse"><stop stop-color="#fff" stop-opacity="0"/><stop offset="1" stop-color="#fff"/></linearGradient><linearGradient id="r" x1="9.008" y1="-7.737" x2="1.026" y2="10.16" gradientUnits="userSpaceOnUse"><stop stop-color="#fff" stop-opacity="0"/><stop offset="1" stop-color="#fff"/></linearGradient></defs></svg>